<?xml version="1.0" encoding="UTF-8" standalone="no" ?>
<!DOCTYPE svg PUBLIC "-//W3C//DTD SVG 1.1//EN" "http://www.w3.org/Graphics/SVG/1.1/DTD/svg11.dtd">
<svg xmlns="http://www.w3.org/2000/svg" xmlns:xlink="http://www.w3.org/1999/xlink" version="1.1" width="337" height="116" viewBox="89 279 337 116" xml:space="preserve">
<desc>Created with Fabric.js 4.6.0</desc>
<defs>
</defs>
<g transform="matrix(0.42 0 0 0.42 147.15 336.85)" id="dGm_NvoxveRlyTqFKyhhp"  >
<radialGradient id="SVGID_1529" gradientUnits="userSpaceOnUse" gradientTransform="matrix(1 0 0 1 0 0)"  cx="126.9070781927711" cy="124.49743963855421" r="123.69349541958383" fx="126.9070781927711" fy="124.49743963855421">
<stop offset="0%" style="stop-color:#E8E8E8;stop-opacity: 1"/>
<stop offset="50%" style="stop-color:#E1E1E1;stop-opacity: 1"/>
<stop offset="100%" style="stop-color:#FFFFFF;stop-opacity: 1"/>
</radialGradient>
<path style="stroke: rgb(10,207,100); stroke-width: 0; stroke-dasharray: none; stroke-linecap: butt; stroke-dashoffset: 0; stroke-linejoin: miter; stroke-miterlimit: 4; fill: url(#SVGID_1529); fill-rule: nonzero; opacity: 1;" vector-effect="non-scaling-stroke"  transform=" translate(-123.9, -123.9)" d="M 123.89503 0 C 125.77442 0 127.64408 0.04192 129.50312 0.12486 C 72.60015999999999 2.85173 27.2521 49.89899 27.2521 107.47349 C 27.2521 166.79886 75.40021999999999 214.94698 134.72559 214.94698 C 194.05096 214.94698 242.19908 166.79886 242.19908 107.47349 C 242.19908 94.31537 239.83051 81.70709 235.49675000000002 70.05204 C 243.37340000000003 86.33664 247.79006 104.60318000000001 247.79006 123.89503 C 247.79006 192.28508 192.28509000000003 247.79006 123.89503 247.79006 C 55.50497 247.79006 0 192.28509000000003 0 123.89503 C 0 55.50498 55.50497 0 123.89503 0 z" stroke-linecap="round" />
</g>
<g transform="matrix(0.42 0 0 0.42 152.54 321.88)" id="AO2dSj4SQpK0AvZgYsKfl"  >
<radialGradient id="SVGID_1375" gradientUnits="userSpaceOnUse" gradientTransform="matrix(1 0 0 1 0 0)"  cx="82.86466" cy="60.31467" r="82.86466" fx="82.86466" fy="60.31467">
<stop offset="0%" style="stop-color:#ffffff;stop-opacity: 1"/>
<stop offset="50%" style="stop-color:#FFFFFF;stop-opacity: 1"/>
<stop offset="100%" style="stop-color:#C7C7C7;stop-opacity: 1"/>
</radialGradient>
<path style="stroke: rgb(10,207,100); stroke-width: 0; stroke-dasharray: none; stroke-linecap: butt; stroke-dashoffset: 0; stroke-linejoin: miter; stroke-miterlimit: 4; fill: url(#SVGID_1375); fill-rule: nonzero; opacity: 1;" vector-effect="non-scaling-stroke"  transform=" translate(-82.86, -60.31)" d="M 74.78534 0 C 124.98642000000001 0 165.72931 40.7429 165.72931 90.94397 C 165.72931 101.33700999999999 163.98304 111.32467 160.7681 120.62933999999998 C 160.981 118.00386999999998 161.08952 115.34904999999999 161.08952 112.66903999999998 C 161.08952 58.95645999999998 117.49669999999999 15.363649999999978 63.78412999999999 15.363649999999978 C 39.39031999999999 15.363649999999978 17.08377999999999 24.354939999999978 -0.000010000000010279564 39.20203999999998 C 16.42300999999999 15.518779999999982 43.80287999999999 -1.4210854715202004e-14 74.78532999999999 -1.4210854715202004e-14 z" stroke-linecap="round" />
</g>
<g transform="matrix(3.61 0 0 3.61 292.07 336.85)" style="" id="waKkBJG69nOIiIQOXGUNp"  >
		<text xml:space="preserve" font-family="Alice" font-size="20" font-style="normal" font-weight="normal" line-height="1.16" style="stroke: none; stroke-width: 1; stroke-dasharray: none; stroke-linecap: butt; stroke-dashoffset: 0; stroke-linejoin: miter; stroke-miterlimit: 4; fill: rgb(255,255,255); fill-rule: nonzero; opacity: 1; white-space: pre;" ><tspan x="-21.82" y="6.28" >Relic</tspan></text>
</g>
<g transform="matrix(2.19 0 0 2.19 399.92 352.9)" style="" id="VDHjcsaTHVpQXvN3v8Yfk"  >
		<text xml:space="preserve" font-family="Alice" font-size="20" font-style="normal" font-weight="normal" line-height="1.16" style="stroke: none; stroke-width: 1; stroke-dasharray: none; stroke-linecap: butt; stroke-dashoffset: 0; stroke-linejoin: miter; stroke-miterlimit: 4; fill: rgb(255,255,255); fill-rule: nonzero; opacity: 1; white-space: pre;" ><tspan x="-9.15" y="6.28" >JS</tspan></text>
</g>
</svg>